name Walk5.mot
datacolumns 19
datarows 15
range 1.94000000 2.01000000
endheader

                time	   L_ground_force_vx	   L_ground_force_vy	   L_ground_force_vz	   L_ground_force_px	   L_ground_force_py	   L_ground_force_pz	   R_ground_force_vx	   R_ground_force_vy	   R_ground_force_vz	   R_ground_force_px	   R_ground_force_py	   R_ground_force_pz	   L_ground_torque_x	   L_ground_torque_y	   L_ground_torque_z	   R_ground_torque_x	   R_ground_torque_y	   R_ground_torque_z	
          1.94000000	        -26.04389561	        578.86738975	         26.79510132	          0.40916785	          0.00000000	          0.26116411	          0.03753366	          0.07195385	          0.00727676	         -0.00009415	          0.00000000	          0.00029768	          0.00000000	         -1.67999071	          0.00000000	          0.00000000	          0.00016972	          0.00000000	
          1.94500000	        -24.39023594	        570.98028138	         26.78903296	          0.41183339	          0.00000000	          0.26123775	          0.02359472	          0.03850135	          0.00514845	         -0.00007055	          0.00000000	          0.00022943	          0.00000000	         -1.78484451	          0.00000000	          0.00000000	          0.00013553	          0.00000000	
          1.95000000	        -22.97534565	        564.13326666	         27.07993710	          0.41460637	          0.00000000	          0.26128721	          0.01278989	          0.01400392	          0.00337643	         -0.00004984	          0.00000000	          0.00016752	          0.00000000	         -1.87180403	          0.00000000	          0.00000000	          0.00010288	          0.00000000	
          1.95500000	        -21.75068580	        558.39860257	         27.67371330	          0.41746371	          0.00000000	          0.26131544	          0.00484943	         -0.00281335	          0.00197303	         -0.00003261	          0.00000000	          0.00011457	          0.00000000	         -1.93887810	          0.00000000	          0.00000000	          0.00007381	          0.00000000	
          1.96000000	        -20.66045657	        553.84190403	         28.55374716	          0.42037709	          0.00000000	          0.26132658	         -0.00062616	         -0.01337544	          0.00091702	         -0.00001899	          0.00000000	          0.00007155	          0.00000000	         -1.98563306	          0.00000000	          0.00000000	          0.00004933	          0.00000000	
          1.96500000	        -19.65200461	        550.51439393	         29.67685572	          0.42331600	          0.00000000	          0.26132446	         -0.00408803	         -0.01909086	          0.00016729	         -0.00000875	          0.00000000	          0.00003831	          0.00000000	         -2.01364711	          0.00000000	          0.00000000	          0.00002973	          0.00000000	
          1.97000000	        -18.68276869	        548.44725624	         30.97317088	          0.42625003	          0.00000000	          0.26131182	         -0.00598474	         -0.02124620	         -0.00032673	         -0.00000149	          0.00000000	          0.00001396	          0.00000000	         -2.02654435	          0.00000000	          0.00000000	          0.00001481	          0.00000000	
          1.97500000	        -17.72207015	        547.65211794	         32.35265390	          0.42915221	          0.00000000	          0.26129208	         -0.00672775	         -0.02094806	         -0.00061769	          0.00000328	          0.00000000	         -0.00000276	          0.00000000	         -2.02963934	          0.00000000	          0.00000000	          0.00000407	          0.00000000	
          1.98000000	        -16.74760557	        548.12706600	         33.71430466	          0.43200048	          0.00000000	          0.26127006	         -0.00667214	         -0.01910012	         -0.00075543	          0.00000608	          0.00000000	         -0.00001326	          0.00000000	         -2.02933857	          0.00000000	          0.00000000	         -0.00000314	          0.00000000	
          1.98500000	        -15.73973001	        549.85870924	         34.95752743	          0.43477808	          0.00000000	          0.26125163	         -0.00610880	         -0.01640449	         -0.00078401	          0.00000740	          0.00000000	         -0.00001895	          0.00000000	         -2.03202863	          0.00000000	          0.00000000	         -0.00000751	          0.00000000	
          1.99000000	        -14.67812248	        552.82324410	         35.99429793	          0.43747138	          0.00000000	          0.26124332	         -0.00526440	         -0.01337844	         -0.00074033	          0.00000766	          0.00000000	         -0.00002110	          0.00000000	         -2.04320976	          0.00000000	          0.00000000	         -0.00000973	          0.00000000	
          1.99500000	        -13.54173206	        556.98767964	         36.75974873	          0.44007232	          0.00000000	          0.26125020	         -0.00430656	         -0.01037982	         -0.00065377	          0.00000722	          0.00000000	         -0.00002081	          0.00000000	         -2.06734992	          0.00000000	          0.00000000	         -0.00001037	          0.00000000	
          2.00000000	        -12.31326356	        562.30453362	         37.22029906	          0.44257840	          0.00000000	          0.26127476	         -0.00335171	         -0.00763594	         -0.00054656	          0.00000636	          0.00000000	         -0.00001897	          0.00000000	         -2.10747227	          0.00000000	          0.00000000	         -0.00000997	          0.00000000	
          2.00500000	        -10.98587249	        568.69940213	         37.37645269	          0.44499399	          0.00000000	          0.26131830	         -0.00247431	         -0.00527244	         -0.00043458	          0.00000531	          0.00000000	         -0.00001630	          0.00000000	         -2.16448518	          0.00000000	          0.00000000	         -0.00000892	          0.00000000	
          2.01000000	         -9.56719356	        576.06301509	         37.25985703	          0.44733379	          0.00000000	          0.26138049	         -0.00171596	         -0.00333978	         -0.00032840	          0.00000422	          0.00000000	         -0.00001329	          0.00000000	         -2.23674993	          0.00000000	          0.00000000	         -0.00000754	          0.00000000	
